<svg width="645" height="645" viewBox="0 0 645 645" fill="none" xmlns="http://www.w3.org/2000/svg">
<path d="M383.693 173.262C403.496 181.454 421.239 193.392 436.012 208.164C450.801 222.953 462.752 240.711 470.954 260.525C478.836 279.566 483.186 300.373 483.186 322.116C483.186 343.86 478.836 364.667 470.954 383.708C462.752 403.522 450.801 421.28 436.012 436.069C421.239 450.841 403.496 462.779 383.693 470.971C364.662 478.843 343.863 483.188 322.124 483.188C300.384 483.188 279.585 478.843 260.554 470.971C240.751 462.779 223.007 450.841 208.235 436.069C193.447 421.28 181.495 403.522 173.293 383.708C165.412 364.667 161.061 343.86 161.061 322.116C161.061 277.598 179.089 237.31 208.236 208.164C223.007 193.392 240.751 181.454 260.554 173.262C279.585 165.39 300.384 161.045 322.124 161.045C343.863 161.045 364.662 165.39 383.693 173.262Z" fill="#FFCC31"/>
<path d="M131.778 336.768H0V307.484H131.778V336.768Z" fill="#FFCC31"/>
<path d="M336.767 512.473V644.251H307.483V512.473H336.767Z" fill="#FFCC31"/>
<path d="M197.884 467.074L104.702 560.255L83.9949 539.548L177.176 446.366L197.884 467.074Z" fill="#FFCC31"/>
<path d="M177.175 197.885L83.9932 104.704L104.701 83.9962L197.882 177.178L177.175 197.885Z" fill="#FFCC31"/>
<path d="M644.25 336.768H512.472V307.483H644.25V336.768Z" fill="#FFCC31"/>
<path d="M336.767 0V131.778H307.482V0H336.767Z" fill="#FFCC31"/>
<path d="M560.254 104.702L467.072 197.883L446.365 177.176L539.546 83.9941L560.254 104.702Z" fill="#FFCC31"/>
<path d="M539.551 560.255L446.365 467.074L467.072 446.366L560.258 539.548L539.551 560.255Z" fill="#FFCC31"/>
</svg>
